<?xml version="1.0" encoding="utf-8" ?><svg xmlns="http://www.w3.org/2000/svg" xmlns:xlink="http://www.w3.org/1999/xlink" width="512" height="512" viewBox="0 0 512 512"><defs><linearGradient id="gradient_0" gradientUnits="userSpaceOnUse" x1="429.0976" y1="444.06064" x2="82.610512" y2="67.588554"><stop offset="0" stop-color="#16A288"/><stop offset="1" stop-color="#31E27E"/></linearGradient></defs><path fill="url(#gradient_0)" d="M242.809 0L269.169 0C273.506 1.19912 280.307 0.833414 285.064 1.41571C296.704 2.81334 308.242 4.96489 319.603 7.8568C384.498 24.4863 440.305 65.8595 475.077 123.12C491.501 150.257 502.772 180.193 508.323 211.423C509.425 217.738 510.286 224.092 510.906 230.473C511.165 233.109 511.39 239.4 512 241.591L512 270.609C511.269 273.195 511.215 277.37 511.031 280.138C510.844 282.759 510.582 285.374 510.247 287.979C508.843 298.979 506.736 309.878 503.939 320.608C486.93 385.728 445.01 441.554 387.218 476.05C360.685 491.855 331.505 502.716 301.096 508.105C295.379 509.159 289.625 510.005 283.847 510.643C281.502 510.909 273.53 511.426 271.942 512L240.399 512C238.767 511.422 230.852 510.883 228.551 510.64C223.692 510.134 218.851 509.462 214.038 508.624C187.477 504.2 161.774 495.635 137.868 483.242C74.2132 450.179 27.3453 391.932 8.67086 322.676C5.69954 311.484 3.41114 300.121 1.81832 288.652C1.29039 284.608 1.03797 273.058 0 270.126L0 241.92C0.647035 240.281 1.19101 228.528 1.56795 225.645C2.11364 221.472 2.76302 216.995 3.50855 212.694C9.10751 180.149 20.9169 148.987 38.2925 120.906C73.3085 64.1798 129.188 23.4615 193.914 7.50771C204.731 4.8442 215.699 2.833 226.757 1.485C231.396 0.936918 238.626 1.1319 242.809 0Z"/><path fill="#FEFEFE" d="M365.823 151.087C423.735 149.53 471.955 195.191 473.557 253.101C475.158 311.012 429.534 359.267 371.625 360.913C313.653 362.561 265.333 316.876 263.73 258.903C262.127 200.929 307.849 152.645 365.823 151.087Z"/><defs><linearGradient id="gradient_1" gradientUnits="userSpaceOnUse" x1="369.74542" y1="207.84274" x2="366.45105" y2="270.78668"><stop offset="0" stop-color="#24C196"/><stop offset="1" stop-color="#2EDDC0"/></linearGradient></defs><path fill="url(#gradient_1)" d="M330.463 225.979C339.673 214.284 353.735 207.455 368.621 207.448C383.507 207.441 397.576 214.257 406.797 225.943C422.507 245.853 420.267 274.496 401.651 291.721C383.035 308.945 354.304 308.959 335.672 291.752C317.04 274.546 314.771 245.904 330.463 225.979Z"/><path fill="#21B87E" d="M406.797 225.943C422.507 245.853 420.267 274.496 401.651 291.721C383.035 308.945 354.304 308.959 335.672 291.752C317.04 274.546 314.771 245.904 330.463 225.979C330.792 227.515 330.35 229.418 330.265 231.016C329.563 244.17 335.441 256.579 346.143 264.268C354.499 270.249 364.9 272.639 375.029 270.907C385.221 269.249 394.314 263.554 400.255 255.109C405.387 247.8 407.261 239.973 407.101 231.115C407.076 229.721 406.45 226.876 406.797 225.943Z"/><path fill="#FEFEFE" d="M140.823 151.084C198.724 149.683 246.814 195.452 248.277 253.352C249.74 311.252 204.023 359.391 146.125 360.917C88.1387 362.444 39.9098 316.642 38.4445 258.654C36.9792 200.666 82.8333 152.487 140.823 151.084Z"/><defs><linearGradient id="gradient_2" gradientUnits="userSpaceOnUse" x1="144.1188" y1="207.86008" x2="141.5145" y2="270.79199"><stop offset="0" stop-color="#2ECA91"/><stop offset="1" stop-color="#3BE9BE"/></linearGradient></defs><path fill="url(#gradient_2)" d="M105.193 225.957C114.314 214.388 128.191 207.581 142.923 207.449C157.655 207.317 171.652 213.874 180.979 225.278C197.109 244.997 195.275 273.825 176.776 291.341C158.277 308.858 129.391 309.117 110.581 291.935C91.7706 274.754 89.4194 245.963 105.193 225.957Z"/><path fill="#21B87E" d="M105.193 225.957C105.675 226.695 105.14 230.567 105.064 231.785C104.809 236.117 105.357 240.459 106.681 244.592C109.731 254.421 116.637 262.594 125.819 267.241C135.077 271.914 145.818 272.696 155.655 269.415C173.464 263.55 185.098 244.801 180.966 225.989C180.869 225.549 180.875 225.797 180.979 225.278C197.109 244.997 195.275 273.825 176.776 291.341C158.277 308.858 129.391 309.117 110.581 291.935C91.7706 274.754 89.4194 245.963 105.193 225.957Z"/></svg>
