<svg version="1.1" id="Layer_1" xmlns="http://www.w3.org/2000/svg" xmlns:xlink="http://www.w3.org/1999/xlink" x="0px" y="0px"
	 width="100%" viewBox="0 0 512 512" enable-background="new 0 0 512 512" xml:space="preserve">
<path fill="#19AA8A" opacity="1.000000" stroke="none" 
	d="
M289.000000,513.000000 
	C280.979095,513.000000 272.958191,513.000000 264.495636,512.640015 
	C265.090851,510.634308 265.872711,508.736328 267.208099,507.385712 
	C273.518127,501.003998 280.028320,494.820831 286.378510,488.478180 
	C312.957611,461.930450 339.527863,435.373627 365.997528,408.717041 
	C367.348083,407.356934 368.729919,404.820892 368.377777,403.207611 
	C367.397064,398.714081 365.656219,394.422028 360.278534,393.036621 
	C358.697052,392.629150 357.418579,391.045715 356.469177,390.000885 
	C378.871857,390.822021 399.905640,386.875366 419.723846,377.417664 
	C424.818542,374.986328 429.256195,371.178131 434.247589,368.000977 
	C434.667419,367.998444 434.835327,367.997406 435.286682,367.899170 
	C436.045258,367.202118 436.520386,366.602264 437.247437,366.000946 
	C437.667297,365.998413 437.835266,365.997375 438.286621,365.899170 
	C439.045074,365.202148 439.520081,364.602295 440.247101,364.000916 
	C440.667084,363.998383 440.835052,363.997345 441.321533,363.918335 
	C442.425598,362.895020 443.211121,361.949677 444.170837,360.729553 
	C445.564545,359.635315 446.784119,358.815826 448.331238,357.919128 
	C449.771393,356.562775 450.883942,355.283630 452.173096,353.724548 
	C454.234619,351.628571 456.119507,349.812531 458.287598,347.899292 
	C459.045959,347.202789 459.521149,346.603485 460.068298,345.686981 
	C461.094971,344.245514 462.049652,343.121216 463.322754,341.918823 
	C464.426208,340.894867 465.211273,339.949066 465.997925,338.751282 
	C466.000549,338.331268 466.001587,338.163300 466.286133,337.898499 
	C467.045227,337.202271 467.520782,336.602783 467.997894,335.751343 
	C468.000458,335.331421 468.001434,335.163452 468.335205,334.910187 
	C473.067719,327.509918 478.245697,320.538116 481.662659,312.789734 
	C485.589508,303.884979 487.957397,294.292755 491.208588,285.332703 
	C491.671082,287.618439 491.820892,289.591858 492.206329,291.518188 
	C492.972809,295.348969 494.153534,298.788574 499.309662,297.292328 
	C503.146942,296.178802 506.993011,295.095642 510.881775,294.404480 
	C510.639496,295.571136 510.258789,296.310822 510.075348,297.096558 
	C507.074707,309.948792 504.657837,322.969086 500.984650,335.625031 
	C495.682312,353.894348 487.506500,371.018097 477.874207,387.424957 
	C462.879791,412.965118 443.871948,435.183624 421.203033,454.116364 
	C401.126556,470.884003 378.890259,484.266876 354.576813,494.171936 
	C334.196381,502.474731 313.221436,508.325745 291.378815,511.084167 
	C290.518921,511.192749 289.789948,512.337891 289.000000,513.000000 
z"/>
<path fill="#000000" opacity="1.000000" stroke="none" 
	d="
M288.000000,1.000001 
	C362.926849,1.000000 437.853729,1.000000 513.000000,1.000000 
	C513.000000,75.354080 513.000000,149.708389 512.596680,224.690231 
	C511.130859,220.117004 510.264771,214.866608 508.965820,209.725586 
	C506.109253,198.419479 503.033936,187.168625 500.025360,175.512756 
	C499.792938,174.357361 499.690674,173.534286 499.357452,172.818771 
	C491.840210,156.676605 484.297577,140.546249 476.531677,124.145187 
	C475.857178,123.194153 475.452911,122.479263 474.958038,121.833855 
	C465.015839,108.868004 455.063202,95.910156 444.968292,82.646446 
	C438.548157,76.288429 432.272400,70.234665 425.691406,64.024559 
	C422.552643,61.374138 419.884827,58.653271 416.849396,56.435539 
	C411.362976,52.427101 405.657043,48.719154 399.898621,44.577446 
	C390.518311,38.808903 381.282196,33.348656 371.864105,27.578415 
	C360.120972,22.568937 348.559753,17.869455 336.610413,13.088503 
	C328.162689,10.965840 320.103088,8.924647 311.821075,6.551285 
	C303.746918,5.107395 295.895142,3.995676 287.872498,2.513479 
	C287.801086,1.762002 287.900543,1.381001 288.000000,1.000001 
z"/>
<path fill="#000000" opacity="1.000000" stroke="none" 
	d="
M225.000000,513.000000 
	C150.406296,513.000000 75.812599,513.000000 1.000000,513.000000 
	C1.000000,438.645905 1.000000,364.291626 1.239404,289.120758 
	C1.969153,288.575623 2.459499,288.847076 2.969427,289.553650 
	C5.714343,302.991089 8.439676,315.993408 11.107087,329.385986 
	C13.022131,335.588989 14.622556,341.562653 17.049664,347.179108 
	C21.401508,357.249451 26.250511,367.104919 30.943859,377.414154 
	C31.087421,378.088989 31.110977,378.443970 31.280056,378.704468 
	C39.271976,391.017212 47.276516,403.321808 55.497227,415.887909 
	C66.118355,427.123260 76.521873,438.098022 87.091537,449.371552 
	C87.961678,450.073761 88.719421,450.406097 89.361557,450.891357 
	C98.582817,457.860321 107.788506,464.849854 117.312134,471.994690 
	C125.717834,476.781281 133.809341,481.407654 141.999741,486.262848 
	C142.098633,486.491638 142.469315,486.824921 142.469315,486.824921 
	C142.469315,486.824921 142.967545,486.808716 143.203766,486.893341 
	C143.602982,487.015472 143.765976,487.053009 144.119202,487.401825 
	C145.973267,488.375549 147.623520,489.074768 149.303116,489.694489 
	C161.198166,494.083282 173.099213,498.455780 185.342697,503.014282 
	C198.021591,505.800049 210.362518,508.375885 222.677185,511.071716 
	C223.550323,511.262848 224.230240,512.336609 225.000000,513.000000 
z"/>
<path fill="#000000" opacity="1.000000" stroke="none" 
	d="
M0.999999,225.000000 
	C1.000000,150.406296 1.000000,75.812576 1.000000,1.000000 
	C75.354088,1.000000 149.708389,1.000000 224.752579,1.385862 
	C224.273468,2.179887 223.132828,2.729906 221.930283,2.970218 
	C217.964722,3.762668 213.976807,4.443084 209.588806,5.099863 
	C208.095520,5.338809 207.028076,5.742873 205.923752,5.935544 
	C181.701721,10.161650 159.153381,19.014473 137.348679,30.169111 
	C118.912292,39.600616 102.099777,51.430397 86.704575,65.051491 
	C71.273087,78.704681 57.623184,94.152061 45.903839,111.239098 
	C34.342831,128.095276 24.400562,145.870209 17.666368,165.106232 
	C12.544836,179.735748 9.265595,195.010239 5.081347,210.401993 
	C4.329587,214.474792 3.770395,218.168076 2.934241,221.797546 
	C2.668215,222.952271 1.665572,223.937317 0.999999,225.000000 
z"/>
<path fill="#000000" opacity="1.000000" stroke="none" 
	d="
M289.468658,513.000000 
	C289.789948,512.337891 290.518921,511.192749 291.378815,511.084167 
	C313.221436,508.325745 334.196381,502.474731 354.576813,494.171936 
	C378.890259,484.266876 401.126556,470.884003 421.203033,454.116364 
	C443.871948,435.183624 462.879791,412.965118 477.874207,387.424957 
	C487.506500,371.018097 495.682312,353.894348 500.984650,335.625031 
	C504.657837,322.969086 507.074707,309.948792 510.075348,297.096558 
	C510.258789,296.310822 510.639496,295.571136 510.947083,293.991394 
	C511.643799,291.781799 512.321899,290.390900 513.000000,289.000000 
	C513.000000,363.593719 513.000000,438.187408 513.000000,513.000000 
	C438.645905,513.000000 364.291626,513.000000 289.468658,513.000000 
z"/>
<path fill="#1CB289" opacity="1.000000" stroke="none" 
	d="
M225.468658,513.000000 
	C224.230240,512.336609 223.550323,511.262848 222.677185,511.071716 
	C210.362518,508.375885 198.021591,505.800049 185.478561,502.720032 
	C188.029953,499.881287 190.944275,497.674011 193.522980,495.126923 
	C204.868546,483.920441 216.115921,472.614594 227.401306,461.347168 
	C251.734802,437.052612 276.089661,412.779327 300.340179,388.402222 
	C301.448608,387.288025 302.525757,384.912750 302.076660,383.691315 
	C300.096222,378.304596 297.553436,373.124390 295.208038,367.872192 
	C294.481079,366.244293 293.734161,364.625305 293.369080,363.078217 
	C295.495789,363.436523 297.249725,363.718872 299.363892,364.028168 
	C301.297882,364.912231 302.906860,365.711060 304.439545,366.636230 
	C312.521088,371.514771 320.217163,377.234192 328.754608,381.098480 
	C337.407288,385.015015 346.884918,387.109009 356.001221,390.001221 
	C357.418579,391.045715 358.697052,392.629150 360.278534,393.036621 
	C365.656219,394.422028 367.397064,398.714081 368.377777,403.207611 
	C368.729919,404.820892 367.348083,407.356934 365.997528,408.717041 
	C339.527863,435.373627 312.957611,461.930450 286.378510,488.478180 
	C280.028320,494.820831 273.518127,501.003998 267.208099,507.385712 
	C265.872711,508.736328 265.090851,510.634308 264.026978,512.640015 
	C251.312439,513.000000 238.624878,513.000000 225.468658,513.000000 
z"/>
<path fill="#2FDB81" opacity="1.000000" stroke="none" 
	d="
M209.997467,5.166519 
	C213.976807,4.443084 217.964722,3.762668 221.930283,2.970218 
	C223.132828,2.729906 224.273468,2.179887 225.221237,1.385862 
	C235.020889,1.000000 245.041794,1.000000 255.504532,1.358982 
	C254.674911,3.601290 253.668930,5.749438 252.093124,7.329207 
	C212.802917,46.718208 173.457977,86.052643 134.092422,125.366402 
	C132.577972,126.878860 130.924240,128.391922 129.059937,129.390228 
	C120.137245,134.168228 111.083534,138.700928 102.143257,143.446777 
	C85.188889,152.446838 69.012169,162.602341 55.305637,176.226227 
	C42.223198,189.229813 31.747704,204.133408 23.210518,220.477066 
	C17.374594,231.649384 11.227099,242.661560 5.041459,253.645416 
	C4.238992,255.070343 2.373242,255.896500 1.000004,257.000000 
	C1.000000,246.645767 1.000000,236.291550 0.999999,225.468658 
	C1.665572,223.937317 2.668215,222.952271 2.934241,221.797546 
	C3.770395,218.168076 4.329587,214.474792 5.429642,210.372589 
	C7.611453,208.756622 9.639188,207.841095 11.063035,206.349213 
	C21.268732,195.655884 31.138737,184.634232 41.544048,174.142014 
	C49.219822,166.402145 57.810123,159.572433 65.534523,151.877060 
	C112.344101,105.243385 159.035004,58.490509 205.694397,11.706500 
	C207.499649,9.896426 208.579559,7.362921 209.997467,5.166519 
z"/>
<path fill="#2ED881" opacity="1.000000" stroke="none" 
	d="
M1.000004,257.468658 
	C2.373242,255.896500 4.238992,255.070343 5.041459,253.645416 
	C11.227099,242.661560 17.374594,231.649384 23.210518,220.477066 
	C31.747704,204.133408 42.223198,189.229813 55.305637,176.226227 
	C69.012169,162.602341 85.188889,152.446838 102.143257,143.446777 
	C111.083534,138.700928 120.137245,134.168228 129.059937,129.390228 
	C130.924240,128.391922 132.577972,126.878860 134.092422,125.366402 
	C173.457977,86.052643 212.802917,46.718208 252.093124,7.329207 
	C253.668930,5.749438 254.674911,3.601290 255.973190,1.358982 
	C266.354218,1.000000 276.708466,1.000000 287.531342,1.000001 
	C287.900543,1.381001 287.801086,1.762002 287.790009,2.853901 
	C286.786530,5.008836 285.847717,6.605737 284.580505,7.874691 
	C245.374634,47.134872 206.148788,86.375191 166.865448,125.557816 
	C165.018616,127.399918 162.814240,129.180786 160.433517,130.132843 
	C154.112366,132.660706 147.710846,135.116562 141.149155,136.890121 
	C120.316711,142.520828 100.104630,149.514450 81.935402,161.521713 
	C64.503014,173.042023 50.015110,187.488449 38.540504,204.941360 
	C27.050745,222.417328 20.487799,241.905457 14.600298,261.803802 
	C11.810582,271.232330 6.899716,280.033264 2.949843,289.118530 
	C2.459499,288.847076 1.969153,288.575623 1.239404,288.652100 
	C1.000000,278.645782 1.000000,268.291534 1.000004,257.468658 
z"/>
<path fill="#1DB388" opacity="1.000000" stroke="none" 
	d="
M500.047913,175.895203 
	C503.033936,187.168625 506.109253,198.419479 508.965820,209.725586 
	C510.264771,214.866608 511.130859,220.117004 512.596680,225.158890 
	C513.000000,228.692902 513.000000,232.385818 512.665039,236.619598 
	C510.662384,238.487457 509.098114,239.984314 507.292297,241.084732 
	C505.978149,241.885529 504.153229,242.880478 502.889038,242.542648 
	C498.621765,241.402328 494.521576,240.073364 491.937469,235.656357 
	C489.484680,231.463837 486.021393,227.862503 482.962769,223.641541 
	C481.576050,220.630478 480.412384,217.864853 478.845703,215.350342 
	C474.995941,209.171600 470.960663,203.108429 466.924805,196.644531 
	C465.566406,192.526459 464.283203,188.762665 463.349182,185.072372 
	C468.386078,187.228012 472.937714,189.778214 477.818207,191.197678 
	C480.312836,191.923248 484.211700,191.596436 486.057922,190.051132 
	C491.122589,185.811966 495.436707,180.676117 500.047913,175.895203 
z"/>
<path fill="#1BAD89" opacity="1.000000" stroke="none" 
	d="
M483.002441,224.001221 
	C486.021393,227.862503 489.484680,231.463837 491.937469,235.656357 
	C494.521576,240.073364 498.621765,241.402328 502.889038,242.542648 
	C504.153229,242.880478 505.978149,241.885529 507.292297,241.084732 
	C509.098114,239.984314 510.662384,238.487457 512.665039,237.080231 
	C513.000000,254.020889 513.000000,271.041779 513.000000,288.531342 
	C512.321899,290.390900 511.643799,291.781799 510.900452,293.585846 
	C506.993011,295.095642 503.146942,296.178802 499.309662,297.292328 
	C494.153534,298.788574 492.972809,295.348969 492.206329,291.518188 
	C491.820892,289.591858 491.671082,287.618439 491.207825,284.865173 
	C491.705414,268.532257 491.067108,253.117157 486.920898,237.628983 
	C485.563629,232.838898 484.283020,228.420059 483.002441,224.001221 
z"/>
<path fill="#19A280" opacity="1.000000" stroke="none" 
	d="
M448.003662,357.996338 
	C446.784119,358.815826 445.564545,359.635315 443.852295,360.807251 
	C442.574066,362.105225 441.788544,363.050781 441.003021,363.996338 
	C440.835052,363.997345 440.667084,363.998383 439.963959,364.098419 
	C438.953613,364.797058 438.478424,365.396698 438.003204,365.996338 
	C437.835266,365.997375 437.667297,365.998413 436.964264,366.098389 
	C435.953857,366.796997 435.478577,367.396667 435.003265,367.996338 
	C434.835327,367.997406 434.667419,367.998444 433.895081,368.074951 
	C432.665192,368.374023 432.003021,368.527283 431.419403,368.831329 
	C410.275360,379.847992 388.120422,384.954803 364.085327,382.155975 
	C344.089661,379.827484 326.019318,373.262085 309.893768,361.326172 
	C307.990936,359.917725 306.617493,357.794037 305.332214,356.001068 
	C306.110199,355.998932 306.554565,355.997620 307.288879,356.127869 
	C308.387115,356.505737 309.195374,356.752045 310.302002,357.152893 
	C326.252319,368.627747 343.539703,375.362793 363.356506,376.210693 
	C365.349213,376.615570 366.984589,376.932098 368.627808,376.980011 
	C385.358582,377.467804 401.418549,374.438416 416.695343,367.549469 
	C436.055420,358.819214 451.213593,345.196960 462.756653,327.489441 
	C476.105438,307.011749 480.706451,284.306763 478.788483,260.264587 
	C478.322113,254.418610 475.651978,248.748428 473.822632,242.646027 
	C471.353058,233.683304 469.056030,225.071945 466.986267,216.255981 
	C469.143188,217.701309 471.072815,219.351273 473.076538,221.363800 
	C473.828552,223.602737 474.384277,225.534317 475.202850,227.347183 
	C485.862213,250.953949 487.688965,275.344849 482.158813,300.528076 
	C479.444061,312.890564 473.865326,323.977661 468.002441,334.995483 
	C468.001434,335.163452 468.000458,335.331421 467.714569,335.848389 
	C466.953979,336.796692 466.478271,337.395996 466.002594,337.995300 
	C466.001587,338.163300 466.000549,338.331268 465.679443,338.829163 
	C464.574341,340.105042 463.789337,341.050995 463.004333,341.996948 
	C462.049652,343.121216 461.094971,344.245514 459.784973,345.783875 
	C458.954559,346.797485 458.479462,347.396973 458.004395,347.996521 
	C456.119507,349.812531 454.234619,351.628571 451.845490,353.801453 
	C450.228729,355.437622 449.116180,356.716980 448.003662,357.996338 
z"/>
<path fill="#1BAA82" opacity="1.000000" stroke="none" 
	d="
M304.998627,356.001923 
	C306.617493,357.794037 307.990936,359.917725 309.893768,361.326172 
	C326.019318,373.262085 344.089661,379.827484 364.085327,382.155975 
	C388.120422,384.954803 410.275360,379.847992 431.419403,368.831329 
	C432.003021,368.527283 432.665192,368.374023 433.643188,368.076416 
	C429.256195,371.178131 424.818542,374.986328 419.723846,377.417664 
	C399.905640,386.875366 378.871857,390.822021 356.469177,390.000916 
	C346.884918,387.109009 337.407288,385.015015 328.754608,381.098480 
	C320.217163,377.234192 312.521088,371.514771 304.439545,366.636230 
	C302.906860,365.711060 301.297882,364.912231 299.291260,363.683105 
	C296.569794,360.207977 294.281250,357.104889 291.994263,353.667511 
	C291.995972,352.887604 291.996063,352.441925 292.340820,352.081116 
	C296.453979,353.444641 300.222473,354.723358 304.242920,356.001648 
	C304.662720,356.001465 304.830658,356.001709 304.998627,356.001923 
z"/>
<path fill="#1BAA82" opacity="1.000000" stroke="none" 
	d="
M468.335205,334.910187 
	C473.865326,323.977661 479.444061,312.890564 482.158813,300.528076 
	C487.688965,275.344849 485.862213,250.953949 475.202850,227.347183 
	C474.384277,225.534317 473.828552,223.602737 473.411041,221.444916 
	C475.579437,223.377243 477.573975,225.523117 479.374817,227.820847 
	C481.989075,231.156479 484.463501,234.601746 486.997559,238.000244 
	C491.067108,253.117157 491.705414,268.532257 491.001709,284.531616 
	C487.957397,294.292755 485.589508,303.884979 481.662659,312.789734 
	C478.245697,320.538116 473.067719,327.509918 468.335205,334.910187 
z"/>
<path fill="#1BAA82" opacity="1.000000" stroke="none" 
	d="
M448.331238,357.919128 
	C449.116180,356.716980 450.228729,355.437622 451.668884,354.081421 
	C450.883942,355.283630 449.771393,356.562775 448.331238,357.919128 
z"/>
<path fill="#1BAA82" opacity="1.000000" stroke="none" 
	d="
M463.322754,341.918823 
	C463.789337,341.050995 464.574341,340.105042 465.677856,339.081177 
	C465.211273,339.949066 464.426208,340.894867 463.322754,341.918823 
z"/>
<path fill="#1BAA82" opacity="1.000000" stroke="none" 
	d="
M441.321533,363.918335 
	C441.788544,363.050781 442.574066,362.105225 443.678101,361.082001 
	C443.211121,361.949677 442.425598,362.895020 441.321533,363.918335 
z"/>
<path fill="#1BAA82" opacity="1.000000" stroke="none" 
	d="
M458.287567,347.899292 
	C458.479462,347.396973 458.954559,346.797485 459.712952,346.101074 
	C459.521149,346.603485 459.045959,347.202789 458.287567,347.899292 
z"/>
<path fill="#1BAA82" opacity="1.000000" stroke="none" 
	d="
M466.286133,337.898499 
	C466.478271,337.395996 466.953979,336.796692 467.713013,336.100342 
	C467.520782,336.602783 467.045227,337.202271 466.286133,337.898499 
z"/>
<path fill="#1BAA82" opacity="1.000000" stroke="none" 
	d="
M438.286621,365.899170 
	C438.478424,365.396698 438.953613,364.797058 439.711975,364.099915 
	C439.520081,364.602295 439.045074,365.202148 438.286621,365.899170 
z"/>
<path fill="#1BAA82" opacity="1.000000" stroke="none" 
	d="
M435.286682,367.899170 
	C435.478577,367.396667 435.953857,366.796997 436.712341,366.099884 
	C436.520386,366.602264 436.045258,367.202118 435.286682,367.899170 
z"/>
<path fill="#28CC84" opacity="1.000000" stroke="none" 
	d="
M372.046051,27.888411 
	C381.282196,33.348656 390.518311,38.808903 399.864868,44.946144 
	C399.413116,46.796829 399.113770,48.230560 398.248871,49.104710 
	C387.383942,60.085796 376.435516,70.984245 365.511932,81.907318 
	C350.950165,96.468376 336.443146,111.084686 321.812836,125.576569 
	C312.380493,134.919678 302.715820,144.027924 293.252472,153.340179 
	C282.956909,163.471298 272.612762,173.561813 262.600983,183.969360 
	C256.429565,190.384720 253.754044,191.349106 245.726120,187.302216 
	C240.700089,184.768585 235.901733,181.783249 230.655823,178.928665 
	C228.752045,177.943314 227.198395,177.021744 225.634506,176.117859 
	C215.757812,170.409317 205.878830,164.704697 196.000458,158.623825 
	C196.000595,157.498932 196.000900,156.748978 196.372757,156.076767 
	C204.077179,158.337845 211.315979,160.947952 218.768082,162.590363 
	C227.019775,164.408966 235.394226,165.805359 241.268951,156.762329 
	C243.467682,153.377792 247.068634,150.906158 250.020996,148.008850 
	C256.994171,141.165756 263.988007,134.343475 270.924133,127.462997 
	C277.733337,120.708374 284.481567,113.892311 291.256531,107.103142 
	C297.925781,100.419891 304.609894,93.751373 311.259918,87.049004 
	C317.551361,80.708023 323.784302,74.308884 330.084290,67.976456 
	C337.323242,60.700249 344.493500,53.349976 351.906494,46.254314 
	C358.467926,39.973789 365.321472,33.998478 372.046051,27.888411 
z"/>
<path fill="#2AD083" opacity="1.000000" stroke="none" 
	d="
M371.864105,27.578415 
	C365.321472,33.998478 358.467926,39.973789 351.906494,46.254314 
	C344.493500,53.349976 337.323242,60.700249 330.084290,67.976456 
	C323.784302,74.308884 317.551361,80.708023 311.259918,87.049004 
	C304.609894,93.751373 297.925781,100.419891 291.256531,107.103142 
	C284.481567,113.892311 277.733337,120.708374 270.924133,127.462997 
	C263.988007,134.343475 256.994171,141.165756 250.020996,148.008850 
	C247.068634,150.906158 243.467682,153.377792 241.268951,156.762329 
	C235.394226,165.805359 227.019775,164.408966 218.768082,162.590363 
	C211.315979,160.947952 204.077179,158.337845 196.017212,156.001724 
	C187.859924,152.898514 180.429764,149.948090 173.349838,146.786865 
	C177.000519,146.454025 180.304520,146.174698 183.600479,146.249603 
	C187.744476,146.343781 191.933578,147.254211 196.009125,146.854111 
	C201.149170,146.349503 206.651611,146.918213 210.945236,142.613388 
	C251.994736,101.456917 293.137360,60.393276 334.153168,19.203360 
	C335.630951,17.719305 336.073547,15.204438 336.998566,13.169976 
	C348.559753,17.869455 360.120972,22.568937 371.864105,27.578415 
z"/>
<path fill="#2DD581" opacity="1.000000" stroke="none" 
	d="
M2.969426,289.553650 
	C6.899716,280.033264 11.810582,271.232330 14.600298,261.803802 
	C20.487799,241.905457 27.050745,222.417328 38.540504,204.941360 
	C50.015110,187.488449 64.503014,173.042023 81.935402,161.521713 
	C100.104630,149.514450 120.316711,142.520828 141.149155,136.890121 
	C147.710846,135.116562 154.112366,132.660706 160.433517,130.132843 
	C162.814240,129.180786 165.018616,127.399918 166.865448,125.557816 
	C206.148788,86.375191 245.374634,47.134872 284.580505,7.874691 
	C285.847717,6.605737 286.786530,5.008836 287.960907,3.224379 
	C295.895142,3.995676 303.746918,5.107395 311.710999,6.873060 
	C311.658142,7.814764 311.546661,8.156358 311.320038,8.382658 
	C272.177185,47.468700 232.849670,86.372711 194.032043,125.778984 
	C186.727707,133.194092 177.945648,136.584564 168.789856,139.643005 
	C163.835526,141.297989 158.285202,141.088058 153.070770,142.073959 
	C149.651810,142.720398 146.352753,144.000977 142.564209,144.998978 
	C132.055252,146.957962 121.709755,148.030914 111.958214,151.033157 
	C77.966576,161.498260 53.028618,183.235291 36.330288,214.440186 
	C25.049421,235.521210 20.817486,258.215698 21.786541,282.354309 
	C21.382748,284.672211 21.090353,286.632019 21.017019,288.599976 
	C20.641077,298.688293 20.624628,308.801941 19.854221,318.858612 
	C19.469967,323.874481 16.620476,327.810791 11.165009,328.995697 
	C8.439676,315.993408 5.714343,302.991089 2.969426,289.553650 
z"/>
<path fill="#26C885" opacity="1.000000" stroke="none" 
	d="
M231.001221,179.000610 
	C235.901733,181.783249 240.700089,184.768585 245.726120,187.302216 
	C253.754044,191.349106 256.429565,190.384720 262.600983,183.969360 
	C272.612762,173.561813 282.956909,163.471298 293.252472,153.340179 
	C302.715820,144.027924 312.380493,134.919678 321.812836,125.576569 
	C336.443146,111.084686 350.950165,96.468376 365.511932,81.907318 
	C376.435516,70.984245 387.383942,60.085796 398.248871,49.104710 
	C399.113770,48.230560 399.413116,46.796829 400.009033,45.254440 
	C405.657043,48.719154 411.362976,52.427101 416.849396,56.435539 
	C419.884827,58.653271 422.552643,61.374138 425.689392,64.413208 
	C424.512482,67.738846 423.446655,70.868576 421.461945,73.224068 
	C417.851868,77.508568 413.726532,81.363594 409.760895,85.342751 
	C403.228455,91.897560 396.651062,98.407639 390.094269,104.938187 
	C383.421814,111.584015 376.897156,118.388138 370.015503,124.809700 
	C366.804321,127.806183 363.216309,130.778488 359.252563,132.512558 
	C349.986725,136.566223 340.264984,139.569351 330.951782,143.525024 
	C304.027039,154.961044 281.809631,172.492523 264.359955,195.998825 
	C259.490631,202.558258 252.553421,202.568680 247.178680,196.491562 
	C244.285172,193.219925 240.425552,190.802719 236.770630,187.758820 
	C234.693375,184.678635 232.847305,181.839615 231.001221,179.000610 
z"/>
<path fill="#2BD382" opacity="1.000000" stroke="none" 
	d="
M143.000000,144.997559 
	C146.352753,144.000977 149.651810,142.720398 153.070770,142.073959 
	C158.285202,141.088058 163.835526,141.297989 168.789856,139.643005 
	C177.945648,136.584564 186.727707,133.194092 194.032043,125.778984 
	C232.849670,86.372711 272.177185,47.468700 311.320038,8.382658 
	C311.546661,8.156358 311.658142,7.814764 311.933411,7.205231 
	C320.103088,8.924647 328.162689,10.965840 336.610413,13.088506 
	C336.073547,15.204438 335.630951,17.719305 334.153168,19.203360 
	C293.137360,60.393276 251.994736,101.456917 210.945236,142.613388 
	C206.651611,146.918213 201.149170,146.349503 196.009125,146.854111 
	C191.933578,147.254211 187.744476,146.343781 183.600479,146.249603 
	C180.304520,146.174698 177.000519,146.454025 172.949661,146.702911 
	C162.466156,146.219009 152.733078,145.608292 143.000000,144.997559 
z"/>
<path fill="#23C086" opacity="1.000000" stroke="none" 
	d="
M445.112671,82.950714 
	C455.063202,95.910156 465.015839,108.868004 474.958038,121.833855 
	C475.452911,122.479263 475.857178,123.194153 476.203735,124.388428 
	C473.768829,126.733917 471.252747,128.381012 469.132660,130.436523 
	C462.815063,136.561630 456.516266,142.718323 450.484070,149.120743 
	C447.152618,152.656662 443.490631,154.527557 438.614075,154.012177 
	C428.746735,152.969360 418.871887,151.997726 408.708984,150.779724 
	C406.862732,150.023148 405.319489,149.445816 403.750549,148.949951 
	C389.787476,144.536911 375.394012,144.753052 361.138611,144.675140 
	C365.452362,142.915497 369.542053,141.122864 373.816559,140.112152 
	C385.274750,137.402908 395.055237,132.368210 403.246185,123.493248 
	C414.638763,111.149231 426.863220,99.569984 438.818604,87.751457 
	C440.679779,85.911591 443.003082,84.539253 445.112671,82.950714 
z"/>
<path fill="#25C483" opacity="1.000000" stroke="none" 
	d="
M444.968292,82.646454 
	C443.003082,84.539253 440.679779,85.911591 438.818604,87.751457 
	C426.863220,99.569984 414.638763,111.149231 403.246185,123.493248 
	C395.055237,132.368210 385.274750,137.402908 373.816559,140.112152 
	C369.542053,141.122864 365.452362,142.915497 360.700195,144.675568 
	C353.968201,146.265793 347.724335,147.202133 341.675659,148.853485 
	C310.003387,157.500412 285.491974,176.010727 267.318756,203.208710 
	C265.591339,205.793945 263.551300,208.669601 260.937958,210.017761 
	C258.511383,211.269577 253.933258,211.992371 252.385330,210.612152 
	C248.017166,206.717224 244.719147,201.622147 240.917572,196.659988 
	C239.557785,193.546631 238.279816,190.773315 237.001831,188.000000 
	C240.425552,190.802719 244.285172,193.219925 247.178680,196.491562 
	C252.553421,202.568680 259.490631,202.558258 264.359955,195.998825 
	C281.809631,172.492523 304.027039,154.961044 330.951782,143.525024 
	C340.264984,139.569351 349.986725,136.566223 359.252563,132.512558 
	C363.216309,130.778488 366.804321,127.806183 370.015503,124.809700 
	C376.897156,118.388138 383.421814,111.584015 390.094269,104.938187 
	C396.651062,98.407639 403.228455,91.897560 409.760895,85.342751 
	C413.726532,81.363594 417.851868,77.508568 421.461945,73.224068 
	C423.446655,70.868576 424.512482,67.738846 425.994598,64.569550 
	C432.272400,70.234665 438.548157,76.288429 444.968292,82.646454 
z"/>
<path fill="#20B987" opacity="1.000000" stroke="none" 
	d="
M409.000122,150.996719 
	C418.871887,151.997726 428.746735,152.969360 438.614075,154.012177 
	C443.490631,154.527557 447.152618,152.656662 450.484070,149.120743 
	C456.516266,142.718323 462.815063,136.561630 469.132660,130.436523 
	C471.252747,128.381012 473.768829,126.733917 476.431824,124.656914 
	C484.297577,140.546249 491.840210,156.676605 499.357452,172.818771 
	C499.690674,173.534286 499.792938,174.357361 500.025360,175.512756 
	C495.436707,180.676117 491.122589,185.811966 486.057922,190.051132 
	C484.211700,191.596436 480.312836,191.923248 477.818207,191.197678 
	C472.937714,189.778214 468.386078,187.228012 463.114807,184.836121 
	C447.479584,169.278458 429.250458,159.425552 409.001709,152.666641 
	C409.000702,151.887360 409.000427,151.442032 409.000122,150.996719 
z"/>
<path fill="#1FB888" opacity="1.000000" stroke="none" 
	d="
M292.996338,363.002258 
	C293.734161,364.625305 294.481079,366.244293 295.208038,367.872192 
	C297.553436,373.124390 300.096222,378.304596 302.076660,383.691315 
	C302.525757,384.912750 301.448608,387.288025 300.340179,388.402222 
	C276.089661,412.779327 251.734802,437.052612 227.401306,461.347168 
	C216.115921,472.614594 204.868546,483.920441 193.522980,495.126923 
	C190.944275,497.674011 188.029953,499.881287 185.134232,502.539215 
	C173.099213,498.455780 161.198166,494.083282 149.303116,489.694489 
	C147.623520,489.074768 145.973267,488.375549 144.277115,487.094849 
	C145.902512,484.411774 147.384048,482.171143 149.243835,480.308075 
	C188.095245,441.387909 227.002838,402.523834 265.829346,363.578888 
	C267.493866,361.909302 269.681641,359.505402 269.575226,357.555481 
	C269.217957,351.010040 267.931061,344.515350 267.314697,338.110840 
	C274.150970,345.378082 280.585388,352.618683 287.261871,359.628784 
	C288.732635,361.173004 291.062225,361.899323 292.996338,363.002258 
z"/>
<path fill="#21BC87" opacity="1.000000" stroke="none" 
	d="
M267.000000,338.001221 
	C267.931061,344.515350 269.217957,351.010040 269.575226,357.555481 
	C269.681641,359.505402 267.493866,361.909302 265.829346,363.578888 
	C227.002838,402.523834 188.095245,441.387909 149.243835,480.308075 
	C147.384048,482.171143 145.902512,484.411774 144.086899,486.783569 
	C143.765976,487.053009 143.602982,487.015472 143.041367,486.743774 
	C142.414886,486.320770 142.167587,486.162231 141.900848,486.034058 
	C133.809341,481.407654 125.717834,476.781281 117.287369,471.649414 
	C117.060982,469.562256 116.578461,467.497223 117.397263,466.489166 
	C119.887466,463.423462 122.857750,460.743164 125.681381,457.953552 
	C134.732895,449.011169 143.858154,440.142700 152.850067,431.140930 
	C162.431778,421.548706 171.929184,411.871246 181.369141,402.139557 
	C182.730743,400.735840 184.806061,397.758667 184.432831,397.322571 
	C182.632339,395.218964 180.298126,392.708466 177.799179,392.242981 
	C172.301514,391.218842 166.576691,391.478973 160.974274,390.918152 
	C158.939240,390.714447 156.988739,389.666046 155.330383,388.795715 
	C157.252182,388.338043 158.907974,388.287506 160.421356,387.797272 
	C163.984329,386.643097 167.479340,385.279114 171.437408,384.000031 
	C173.697571,383.883606 175.590088,384.041809 177.336578,383.609680 
	C206.429855,376.412140 229.200424,360.237335 245.916931,335.372955 
	C248.108856,332.112671 250.808472,329.026215 253.857590,326.591370 
	C255.091934,325.605713 258.883362,325.743774 259.798126,326.822784 
	C262.640015,330.174835 264.660706,334.223083 267.000000,338.001221 
z"/>
<path fill="#23C086" opacity="1.000000" stroke="none" 
	d="
M154.999680,389.003021 
	C156.988739,389.666046 158.939240,390.714447 160.974274,390.918152 
	C166.576691,391.478973 172.301514,391.218842 177.799179,392.242981 
	C180.298126,392.708466 182.632339,395.218964 184.432831,397.322571 
	C184.806061,397.758667 182.730743,400.735840 181.369141,402.139557 
	C171.929184,411.871246 162.431778,421.548706 152.850067,431.140930 
	C143.858154,440.142700 134.732895,449.011169 125.681381,457.953552 
	C122.857750,460.743164 119.887466,463.423462 117.397263,466.489166 
	C116.578461,467.497223 117.060982,469.562256 116.973175,471.489197 
	C107.788506,464.849854 98.582817,457.860321 89.361557,450.891357 
	C88.719421,450.406097 87.961678,450.073761 87.134155,449.002167 
	C88.426376,445.972961 89.443245,443.217773 91.323120,441.315308 
	C102.846207,429.653442 114.536789,418.156189 126.240372,406.674225 
	C128.733826,404.227936 129.685867,401.254547 127.550140,398.710907 
	C124.974976,395.643890 121.594742,393.201385 118.366241,390.747406 
	C114.349838,387.694458 110.132256,384.906189 106.373222,382.080200 
	C122.366104,387.707306 138.473343,389.832092 154.999680,389.003021 
z"/>
<path fill="#25C585" opacity="1.000000" stroke="none" 
	d="
M106.001526,382.003662 
	C110.132256,384.906189 114.349838,387.694458 118.366241,390.747406 
	C121.594742,393.201385 124.974976,395.643890 127.550140,398.710907 
	C129.685867,401.254547 128.733826,404.227936 126.240372,406.674225 
	C114.536789,418.156189 102.846207,429.653442 91.323120,441.315308 
	C89.443245,443.217773 88.426376,445.972961 86.968018,448.703400 
	C76.521873,438.098022 66.118355,427.123260 55.827057,415.635101 
	C64.659195,407.113525 73.430550,399.159515 82.015625,391.009308 
	C82.830399,390.235809 82.987503,388.057953 82.567528,386.835175 
	C81.506996,383.747375 80.307846,380.588470 78.507881,377.897064 
	C74.205833,371.464294 69.525665,365.284424 65.338112,359.083252 
	C68.786179,360.776062 71.894310,362.388031 75.337311,364.080444 
	C76.757042,364.906464 77.798149,365.727509 78.933670,366.385620 
	C87.946159,371.609100 96.976593,376.801636 106.001526,382.003662 
z"/>
<path fill="#27CA84" opacity="1.000000" stroke="none" 
	d="
M64.998169,359.002441 
	C69.525665,365.284424 74.205833,371.464294 78.507881,377.897064 
	C80.307846,380.588470 81.506996,383.747375 82.567528,386.835175 
	C82.987503,388.057953 82.830399,390.235809 82.015625,391.009308 
	C73.430550,399.159515 64.659195,407.113525 55.609451,415.374512 
	C47.276516,403.321808 39.271976,391.017212 31.280056,378.704468 
	C31.110977,378.443970 31.087421,378.088989 31.189117,377.181702 
	C34.226742,373.584564 36.842369,370.317139 39.963425,367.638672 
	C46.421497,362.096436 47.287197,355.623077 44.537746,347.934387 
	C41.474537,339.368256 38.828770,330.652863 36.320713,322.117737 
	C37.912529,324.126801 39.322075,325.943695 40.434769,327.927094 
	C46.978703,339.591949 54.951847,350.112823 64.998169,359.002441 
z"/>
<path fill="#2ACF82" opacity="1.000000" stroke="none" 
	d="
M36.001297,322.002441 
	C38.828770,330.652863 41.474537,339.368256 44.537746,347.934387 
	C47.287197,355.623077 46.421497,362.096436 39.963425,367.638672 
	C36.842369,370.317139 34.226742,373.584564 31.136997,376.817749 
	C26.250511,367.104919 21.401508,357.249451 17.049664,347.179108 
	C14.622556,341.562653 13.022131,335.588989 11.107088,329.385986 
	C16.620476,327.810791 19.469967,323.874481 19.854221,318.858612 
	C20.624628,308.801941 20.641077,298.688293 21.017019,288.599976 
	C21.090353,286.632019 21.382748,284.672211 21.991913,282.676605 
	C25.377338,292.553772 28.185278,302.515686 31.424812,312.335205 
	C32.235100,314.791290 34.434471,316.789124 35.996815,319.373169 
	C35.999241,320.500031 36.000267,321.251221 36.001297,322.002441 
z"/>
<path fill="#1FB888" opacity="1.000000" stroke="none" 
	d="
M141.999741,486.262848 
	C142.167587,486.162231 142.414886,486.320770 142.805145,486.659180 
	C142.967545,486.808716 142.469315,486.824921 142.469315,486.824921 
	C142.469315,486.824921 142.098633,486.491638 141.999741,486.262848 
z"/>
<path fill="#31DF80" opacity="1.000000" stroke="none" 
	d="
M209.588806,5.099861 
	C208.579559,7.362921 207.499649,9.896426 205.694397,11.706500 
	C159.035004,58.490509 112.344101,105.243385 65.534523,151.877060 
	C57.810123,159.572433 49.219822,166.402145 41.544048,174.142014 
	C31.138737,184.634232 21.268732,195.655884 11.063035,206.349213 
	C9.639188,207.841095 7.611453,208.756622 5.514969,209.968353 
	C9.265595,195.010239 12.544836,179.735748 17.666368,165.106232 
	C24.400562,145.870209 34.342831,128.095276 45.903839,111.239098 
	C57.623184,94.152061 71.273087,78.704681 86.704575,65.051491 
	C102.099777,51.430397 118.912292,39.600616 137.348679,30.169111 
	C159.153381,19.014473 181.701721,10.161650 205.923752,5.935544 
	C207.028076,5.742873 208.095520,5.338809 209.588806,5.099861 
z"/>
<path fill="#20B681" opacity="1.000000" stroke="none" 
	d="
M267.314697,338.110840 
	C264.660706,334.223083 262.640015,330.174835 259.798126,326.822784 
	C258.883362,325.743774 255.091934,325.605713 253.857590,326.591370 
	C250.808472,329.026215 248.108856,332.112671 245.916931,335.372955 
	C229.200424,360.237335 206.429855,376.412140 177.336578,383.609680 
	C175.590088,384.041809 173.697571,383.883606 170.968628,384.000031 
	C164.592453,383.998413 159.114334,384.142273 153.652893,383.903839 
	C152.077759,383.835052 150.550659,382.665955 149.453598,382.000946 
	C169.226105,381.382660 187.298660,376.424072 203.894852,366.400330 
	C214.630402,359.916229 224.612549,352.489258 232.197098,342.333649 
	C238.749939,333.559418 244.971619,324.537598 251.539810,315.775238 
	C255.205200,310.885406 257.762787,310.939728 261.951416,315.498413 
	C263.069550,316.715332 264.060974,318.073975 264.954681,319.467529 
	C269.172791,326.044769 272.892761,333.000336 277.653595,339.153015 
	C281.839203,344.562286 287.168488,349.086609 291.992676,354.001770 
	C294.281250,357.104889 296.569794,360.207977 298.931030,363.656189 
	C297.249725,363.718872 295.495789,363.436523 293.369080,363.078247 
	C291.062225,361.899323 288.732635,361.173004 287.261871,359.628784 
	C280.585388,352.618683 274.150970,345.378082 267.314697,338.110840 
z"/>
<path fill="#22B583" opacity="1.000000" stroke="none" 
	d="
M409.002441,153.000610 
	C429.250458,159.425552 447.479584,169.278458 462.765656,184.762634 
	C464.283203,188.762665 465.566406,192.526459 466.591766,196.565369 
	C462.276215,193.454468 458.429718,189.763641 454.103302,186.765305 
	C449.465546,183.551239 445.998718,178.143539 439.120239,178.132660 
	C423.014618,164.249191 404.547455,156.284760 384.197052,152.520355 
	C385.915375,151.797272 387.473206,150.966156 388.961365,151.076340 
	C395.652557,151.571686 402.323914,152.334351 409.002441,153.000610 
z"/>
<path fill="#1EAB82" opacity="1.000000" stroke="none" 
	d="
M439.410339,178.270996 
	C445.998718,178.143539 449.465546,183.551239 454.103302,186.765305 
	C458.429718,189.763641 462.276215,193.454468 466.666992,196.919617 
	C470.960663,203.108429 474.995941,209.171600 478.845703,215.350342 
	C480.412384,217.864853 481.576050,220.630478 482.962769,223.641541 
	C484.283020,228.420059 485.563629,232.838898 486.920898,237.628983 
	C484.463501,234.601746 481.989075,231.156479 479.374817,227.820847 
	C477.573975,225.523117 475.579437,223.377243 473.336975,221.082367 
	C471.072815,219.351273 469.143188,217.701309 466.728271,215.998230 
	C463.372406,210.546646 461.086609,204.716827 457.496033,199.849609 
	C451.935211,192.311646 445.484009,185.430588 439.410339,178.270996 
z"/>
<path fill="#FEFFFE" opacity="1.000000" stroke="none" 
	d="
M439.120239,178.132660 
	C445.484009,185.430588 451.935211,192.311646 457.496033,199.849609 
	C461.086609,204.716827 463.372406,210.546646 466.500977,216.202850 
	C469.056030,225.071945 471.353058,233.683304 473.774109,243.075500 
	C475.289337,256.974670 474.258972,269.950287 471.404083,283.130798 
	C467.838684,296.716919 461.628967,308.660461 453.690552,320.101135 
	C419.790283,362.080170 368.347565,373.475983 319.849030,349.554596 
	C306.747772,342.033844 295.066406,333.335205 286.189514,320.889099 
	C278.836792,310.888855 273.268616,300.303772 269.342346,288.429077 
	C264.804260,273.658020 264.179382,258.923645 265.361542,243.706360 
	C267.217010,236.249435 268.873718,229.124542 270.710999,221.723969 
	C277.411407,204.201157 286.752747,188.884155 301.549377,176.974213 
	C311.187195,171.212646 320.098328,164.664978 329.933044,160.112595 
	C347.024689,152.201096 365.360931,150.687683 384.004486,152.845734 
	C404.547455,156.284760 423.014618,164.249191 439.120239,178.132660 
M322.171509,267.746216 
	C324.812042,277.525452 328.991882,286.396057 337.485931,293.483124 
	C354.292542,307.552765 377.002136,309.700348 394.664856,298.682678 
	C395.654877,297.841461 396.552551,296.847931 397.649506,296.183167 
	C406.466095,290.840302 412.028809,283.035248 415.659882,272.725983 
	C416.165466,269.666138 416.559082,266.582794 417.195892,263.550537 
	C420.039490,250.010239 416.260071,238.180115 407.824219,226.877029 
	C386.794220,200.994583 349.300293,203.841644 331.307983,227.070267 
	C322.415649,239.043488 318.803345,252.220581 322.171509,267.746216 
z"/>
<path fill="#189979" opacity="1.000000" stroke="none" 
	d="
M471.601532,282.830017 
	C474.258972,269.950287 475.289337,256.974670 473.946655,243.426880 
	C475.651978,248.748428 478.322113,254.418610 478.788483,260.264587 
	C480.706451,284.306763 476.105438,307.011749 462.756653,327.489441 
	C451.213593,345.196960 436.055420,358.819214 416.695343,367.549469 
	C401.418549,374.438416 385.358582,377.467804 368.627808,376.980011 
	C366.984589,376.932098 365.349213,376.615570 363.648987,376.013184 
	C365.392242,374.402588 367.196716,373.202515 369.465179,372.001709 
	C375.066650,371.670746 380.246063,371.649994 385.335083,370.961395 
	C426.628510,365.373993 458.310883,337.722015 470.393158,297.730988 
	C471.802002,293.067963 471.246429,287.811401 471.601532,282.830017 
z"/>
<path fill="#1FA875" opacity="1.000000" stroke="none" 
	d="
M305.332214,356.001068 
	C304.830658,356.001709 304.662720,356.001465 303.958801,355.825775 
	C301.112244,353.763763 298.690674,351.996765 296.509399,349.971008 
	C283.989319,338.343597 275.503815,323.956299 268.295258,308.676025 
	C266.171631,304.174469 263.889740,299.705414 261.217926,295.516388 
	C258.487427,291.235260 255.483261,291.047485 252.576996,295.137421 
	C249.905960,298.896332 247.993607,303.205688 245.850555,307.326385 
	C237.622787,323.146759 228.959396,338.536377 214.623383,349.997864 
	C197.977676,363.305908 179.574936,372.068634 158.191650,374.123566 
	C153.114334,374.611450 148.062393,375.363434 142.618927,375.915314 
	C133.841919,373.949646 125.395706,372.249115 117.077026,370.063324 
	C114.537865,369.396118 112.349396,367.394287 110.369629,366.079681 
	C127.884010,372.268250 145.551865,374.035919 163.373199,370.756714 
	C198.279572,364.333832 223.798080,345.027863 239.415497,313.049133 
	C244.087845,303.481903 248.101669,293.594727 252.619949,283.949127 
	C253.461411,282.152740 255.270691,280.809753 256.633331,279.257507 
	C258.032135,280.724670 259.917755,281.961609 260.740417,283.701233 
	C263.442047,289.414124 265.535400,295.417053 268.286041,301.103668 
	C270.913422,306.535553 274.070770,311.711090 277.022980,317.371155 
	C279.783752,322.587860 281.900909,327.939209 285.380493,332.170013 
	C292.184509,340.442871 299.749207,348.090088 306.998962,355.996338 
	C306.554565,355.997620 306.110199,355.998932 305.332214,356.001068 
z"/>
<path fill="#1E9E73" opacity="1.000000" stroke="none" 
	d="
M307.288879,356.127869 
	C299.749207,348.090088 292.184509,340.442871 285.380493,332.170013 
	C281.900909,327.939209 279.783752,322.587860 276.947540,317.012695 
	C274.302429,308.839386 271.665314,301.426422 269.297577,293.928375 
	C268.812347,292.391693 269.336029,290.536407 269.394653,288.827972 
	C273.268616,300.303772 278.836792,310.888855 286.153931,321.305481 
	C286.823212,323.702759 287.090149,325.629639 288.099884,327.015198 
	C291.516968,331.704071 294.993774,336.381256 298.834290,340.720825 
	C302.646729,345.028687 306.926453,348.923065 310.729797,353.102051 
	C310.306824,354.469666 310.155243,355.734009 310.003662,356.998383 
	C309.195374,356.752045 308.387115,356.505737 307.288879,356.127869 
z"/>
<path fill="#199B76" opacity="1.000000" stroke="none" 
	d="
M310.302002,357.152893 
	C310.155243,355.734009 310.306824,354.469666 311.077850,353.175232 
	C313.156860,353.893463 314.669647,354.554260 316.067413,355.404175 
	C325.704834,361.264069 335.685852,366.261993 347.298157,368.221527 
	C354.732117,369.629517 361.866669,370.815979 369.001221,372.002441 
	C367.196716,373.202515 365.392242,374.402588 363.295288,375.800171 
	C343.539703,375.362793 326.252319,368.627747 310.302002,357.152893 
z"/>
<path fill="#20B37C" opacity="1.000000" stroke="none" 
	d="
M291.994263,353.667511 
	C287.168488,349.086609 281.839203,344.562286 277.653595,339.153015 
	C272.892761,333.000336 269.172791,326.044769 264.954681,319.467529 
	C264.060974,318.073975 263.069550,316.715332 261.951416,315.498413 
	C257.762787,310.939728 255.205200,310.885406 251.539810,315.775238 
	C244.971619,324.537598 238.749939,333.559418 232.197098,342.333649 
	C224.612549,352.489258 214.630402,359.916229 203.894852,366.400330 
	C187.298660,376.424072 169.226105,381.382660 148.988129,382.000916 
	C134.547913,382.781769 121.852119,379.154663 109.401451,374.507446 
	C106.744514,373.515778 104.458252,371.530945 102.388092,370.032043 
	C116.184128,372.706543 129.593292,375.352661 143.462036,377.998779 
	C148.390823,377.675598 152.869675,377.451019 157.327667,377.013550 
	C193.993500,373.415649 221.754791,355.840759 240.513565,324.058441 
	C244.309662,317.626892 248.324127,311.314392 252.478317,305.107880 
	C254.885422,301.511566 258.082886,301.348358 260.454102,305.057404 
	C264.822998,311.891357 268.503265,319.177490 273.046417,325.885132 
	C279.074036,334.784546 285.653717,343.310089 291.996155,351.996277 
	C291.996063,352.441925 291.995972,352.887604 291.994263,353.667511 
z"/>
<path fill="#1FAD7A" opacity="1.000000" stroke="none" 
	d="
M292.340820,352.081116 
	C285.653717,343.310089 279.074036,334.784546 273.046417,325.885132 
	C268.503265,319.177490 264.822998,311.891357 260.454102,305.057404 
	C258.082886,301.348358 254.885422,301.511566 252.478317,305.107880 
	C248.324127,311.314392 244.309662,317.626892 240.513565,324.058441 
	C221.754791,355.840759 193.993500,373.415649 157.327667,377.013550 
	C152.869675,377.451019 148.390823,377.675598 143.461319,377.664734 
	C143.000259,376.885040 142.999527,376.439484 142.998779,375.993896 
	C148.062393,375.363434 153.114334,374.611450 158.191650,374.123566 
	C179.574936,372.068634 197.977676,363.305908 214.623383,349.997864 
	C228.959396,338.536377 237.622787,323.146759 245.850555,307.326385 
	C247.993607,303.205688 249.905960,298.896332 252.576996,295.137421 
	C255.483261,291.047485 258.487427,291.235260 261.217926,295.516388 
	C263.889740,299.705414 266.171631,304.174469 268.295258,308.676025 
	C275.503815,323.956299 283.989319,338.343597 296.509399,349.971008 
	C298.690674,351.996765 301.112244,353.763763 303.706909,355.826172 
	C300.222473,354.723358 296.453979,353.444641 292.340820,352.081116 
z"/>
<path fill="#2DCE7D" opacity="1.000000" stroke="none" 
	d="
M35.995422,318.997559 
	C34.434471,316.789124 32.235100,314.791290 31.424812,312.335205 
	C28.185278,302.515686 25.377338,292.553772 22.204350,282.322266 
	C20.817486,258.215698 25.049421,235.521210 36.330288,214.440186 
	C53.028618,183.235291 77.966576,161.498260 111.958214,151.033157 
	C121.709755,148.030914 132.055252,146.957962 142.564209,144.998993 
	C152.733078,145.608292 162.466156,146.219009 172.599411,146.913696 
	C180.429764,149.948090 187.859924,152.898514 195.645660,155.923996 
	C196.000900,156.748978 196.000595,157.498932 195.621582,158.545288 
	C191.533203,157.902344 187.868713,156.648758 184.101837,156.107605 
	C179.917694,155.506470 175.640182,155.555084 171.018738,155.302734 
	C143.803024,148.932831 118.149704,151.862106 93.794815,165.032593 
	C78.858902,173.109528 67.031090,184.623169 56.863388,198.066711 
	C56.088863,198.132446 55.355507,198.194595 55.011276,198.592972 
	C39.005245,217.117767 31.164425,239.084961 29.139519,263.075317 
	C27.536354,282.069092 29.534527,300.869293 35.995422,318.997559 
z"/>
<path fill="#2BC57F" opacity="1.000000" stroke="none" 
	d="
M171.403320,155.320816 
	C175.640182,155.555084 179.917694,155.506470 184.101837,156.107605 
	C187.868713,156.648758 191.533203,157.902344 195.621735,158.920227 
	C205.878830,164.704697 215.757812,170.409317 225.634506,176.117859 
	C227.198395,177.021744 228.752045,177.943314 230.655823,178.928665 
	C232.847305,181.839615 234.693375,184.678635 236.770645,187.758820 
	C238.279816,190.773315 239.557785,193.546631 240.582153,196.579193 
	C237.461548,194.637039 234.737793,192.207748 231.690903,190.292542 
	C227.978912,187.959259 225.687180,182.922501 219.818939,183.830383 
	C206.041245,169.879044 189.741653,160.871063 171.403320,155.320816 
z"/>
<path fill="#26BE80" opacity="1.000000" stroke="none" 
	d="
M220.126663,183.974625 
	C225.687180,182.922501 227.978912,187.959259 231.690903,190.292542 
	C234.737793,192.207748 237.461548,194.637039 240.663971,196.919250 
	C244.719147,201.622147 248.017166,206.717224 252.385330,210.612152 
	C253.933258,211.992371 258.511383,211.269577 260.937958,210.017761 
	C263.551300,208.669601 265.591339,205.793945 267.318756,203.208710 
	C285.491974,176.010727 310.003387,157.500412 341.675659,148.853485 
	C347.724335,147.202133 353.968201,146.265793 360.560394,144.999115 
	C375.394012,144.753052 389.787476,144.536911 403.750549,148.949951 
	C405.319489,149.445816 406.862732,150.023148 408.708984,150.779724 
	C409.000427,151.442032 409.000702,151.887360 409.001709,152.666641 
	C402.323914,152.334351 395.652557,151.571686 388.961365,151.076340 
	C387.473206,150.966156 385.915375,151.797272 384.197052,152.520355 
	C365.360931,150.687683 347.024689,152.201096 329.933044,160.112595 
	C320.098328,164.664978 311.187195,171.212646 301.174194,176.981781 
	C291.988403,180.259796 286.701813,187.325409 281.303162,193.860077 
	C274.887054,201.626312 269.586731,210.305923 263.639832,218.470963 
	C259.143188,224.644821 254.680145,224.667786 250.097061,218.689438 
	C246.670914,214.220230 243.667587,209.398743 239.980026,205.166229 
	C236.488358,201.158600 232.350754,197.713715 228.249878,193.831696 
	C225.377243,190.419556 222.751953,187.197098 220.126663,183.974625 
z"/>
<path fill="#23BC7E" opacity="1.000000" stroke="none" 
	d="
M102.001221,370.003662 
	C104.458252,371.530945 106.744514,373.515778 109.401451,374.507446 
	C121.852119,379.154663 134.547913,382.781769 148.536072,382.001251 
	C150.550659,382.665955 152.077759,383.835052 153.652893,383.903839 
	C159.114334,384.142273 164.592453,383.998413 170.533035,384.000000 
	C167.479340,385.279114 163.984329,386.643097 160.421356,387.797272 
	C158.907974,388.287506 157.252182,388.338043 155.330383,388.795715 
	C138.473343,389.832092 122.366104,387.707306 106.373215,382.080200 
	C96.976593,376.801636 87.946159,371.609100 78.933670,366.385620 
	C77.798149,365.727509 76.757042,364.906464 75.257278,363.747620 
	C73.276993,361.438202 71.612312,359.614410 70.167435,357.630554 
	C67.378197,353.800842 64.713028,349.880798 62.331001,346.078522 
	C68.443291,350.105499 74.221001,354.052155 80.319717,358.142151 
	C86.427948,361.524902 92.215172,364.764282 98.099739,368.287048 
	C98.797287,369.045349 99.397476,369.520233 100.331581,369.996399 
	C101.110741,369.999695 101.555977,370.001678 102.001221,370.003662 
z"/>
<path fill="#28C67B" opacity="1.000000" stroke="none" 
	d="
M61.996422,345.998199 
	C64.713028,349.880798 67.378197,353.800842 70.167435,357.630554 
	C71.612312,359.614410 73.276993,361.438202 74.922409,363.667145 
	C71.894310,362.388031 68.786179,360.776062 65.338112,359.083252 
	C54.951847,350.112823 46.978703,339.591949 40.434769,327.927094 
	C39.322075,325.943695 37.912529,324.126801 36.320717,322.117737 
	C36.000267,321.251221 35.999241,320.500031 35.996819,319.373169 
	C29.534527,300.869293 27.536354,282.069092 29.139519,263.075317 
	C31.164425,239.084961 39.005245,217.117767 55.011276,198.592972 
	C55.355507,198.194595 56.088863,198.132446 56.780396,198.394531 
	C50.599144,208.521683 45.116619,218.548950 42.446056,230.110077 
	C41.282547,231.384613 39.937309,232.449921 39.681389,233.732574 
	C37.346851,245.433243 33.652439,257.143402 33.437458,268.907135 
	C33.222519,280.668854 35.473747,292.784943 38.573727,304.222656 
	C42.819351,319.887329 50.236675,334.291565 61.996422,345.998199 
z"/>
<path fill="#21A573" opacity="1.000000" stroke="none" 
	d="
M269.342346,288.429077 
	C269.336029,290.536407 268.812347,292.391693 269.297577,293.928375 
	C271.665314,301.426422 274.302429,308.839386 276.919678,316.640869 
	C274.070770,311.711090 270.913422,306.535553 268.286041,301.103668 
	C265.535400,295.417053 263.442047,289.414124 260.740417,283.701233 
	C259.917755,281.961609 258.032135,280.724670 256.633331,279.257507 
	C255.270691,280.809753 253.461411,282.152740 252.619949,283.949127 
	C248.101669,293.594727 244.087845,303.481903 239.415497,313.049133 
	C223.798080,345.027863 198.279572,364.333832 163.373199,370.756714 
	C145.551865,374.035919 127.884010,372.268250 109.994148,366.079010 
	C108.498451,366.001129 107.747536,365.999939 106.882156,365.680542 
	C105.345604,364.318298 103.902756,363.301239 102.505211,362.225372 
	C97.661804,358.496887 92.834122,354.747986 88.339752,351.086914 
	C89.279053,351.449463 89.928810,351.658264 90.471886,352.025024 
	C112.495804,366.898438 136.984207,372.187958 162.801208,367.667847 
	C196.375153,361.789673 221.201279,343.071960 236.293518,312.151825 
	C237.014969,310.673767 236.760376,308.719269 237.004364,306.627136 
	C247.354248,287.080200 250.415375,266.485870 249.282196,245.092316 
	C250.580933,246.041428 251.804901,246.747787 252.456406,247.806442 
	C254.978409,251.904663 257.482849,251.269653 260.356659,248.194031 
	C261.794434,246.655319 263.550598,245.414108 265.162781,244.038361 
	C264.179382,258.923645 264.804260,273.658020 269.342346,288.429077 
z"/>
<path fill="#1A8F70" opacity="1.000000" stroke="none" 
	d="
M320.052887,349.820404 
	C368.347565,373.475983 419.790283,362.080170 453.686890,320.485626 
	C453.406311,322.209747 453.208466,324.040070 452.220581,325.194061 
	C446.847412,331.470795 441.809052,338.175323 435.678711,343.636139 
	C417.567596,359.769440 395.982117,367.625427 371.808105,367.883331 
	C364.213043,367.964386 356.603210,366.666656 348.716614,365.785461 
	C341.266022,362.532501 333.959229,359.775024 327.001770,356.315125 
	C324.281586,354.962402 322.345886,352.032166 320.052887,349.820404 
z"/>
<path fill="#189374" opacity="1.000000" stroke="none" 
	d="
M349.000153,366.000000 
	C356.603210,366.666656 364.213043,367.964386 371.808105,367.883331 
	C395.982117,367.625427 417.567596,359.769440 435.678711,343.636139 
	C441.809052,338.175323 446.847412,331.470795 452.220581,325.194061 
	C453.208466,324.040070 453.406311,322.209747 453.972473,320.307129 
	C461.628967,308.660461 467.838684,296.716919 471.404083,283.130798 
	C471.246429,287.811401 471.802002,293.067963 470.393158,297.730988 
	C458.310883,337.722015 426.628510,365.373993 385.335083,370.961395 
	C380.246063,371.649994 375.066650,371.670746 369.465179,372.001709 
	C361.866669,370.815979 354.732117,369.629517 347.489075,368.012329 
	C347.920441,367.054443 348.460297,366.527222 349.000153,366.000000 
z"/>
<path fill="#20AD80" opacity="1.000000" stroke="none" 
	d="
M394.002930,298.827789 
	C377.002136,309.700348 354.292542,307.552765 337.417480,292.960907 
	C336.855225,290.909668 336.623444,289.225403 335.824585,287.877167 
	C331.101257,279.906036 329.059235,271.287384 330.151154,262.156555 
	C330.629669,258.154907 330.050903,253.285751 335.098022,251.168976 
	C335.506500,251.585526 335.761810,251.797501 336.082031,252.300354 
	C336.436737,253.405579 336.747650,254.194473 336.718262,255.131195 
	C335.643280,256.712799 334.503204,258.074707 334.234528,259.591034 
	C329.857330,284.291779 351.511841,305.224091 375.735687,299.793640 
	C396.055725,295.238312 408.445648,273.756134 401.130981,255.751801 
	C401.511902,255.005585 401.757629,254.504074 402.210876,253.818954 
	C402.905457,253.086121 403.392487,252.536911 404.183350,252.191010 
	C405.245087,253.652145 406.387207,254.821350 406.700928,256.181610 
	C409.518463,268.397705 407.200317,279.577362 399.770020,289.735138 
	C397.655670,292.625610 395.914978,295.789368 394.002930,298.827789 
z"/>
<path fill="#28C096" opacity="1.000000" stroke="none" 
	d="
M331.908691,226.720993 
	C349.300293,203.841644 386.794220,200.994583 407.909912,227.636353 
	C407.944000,229.935516 407.892426,231.475342 407.523956,232.923279 
	C406.256989,232.176422 405.248718,231.591385 404.365356,230.856262 
	C382.709564,212.835510 360.014557,212.142883 337.310425,228.746796 
	C335.480865,230.084808 333.312103,230.959000 331.320557,231.667084 
	C331.529663,229.763977 331.719177,228.242493 331.908691,226.720993 
z"/>
<path fill="#27B97D" opacity="1.000000" stroke="none" 
	d="
M228.497238,194.021347 
	C232.350754,197.713715 236.488358,201.158600 239.980026,205.166229 
	C243.667587,209.398743 246.670914,214.220230 250.097061,218.689438 
	C254.680145,224.667786 259.143188,224.644821 263.639832,218.470963 
	C269.586731,210.305923 274.887054,201.626312 281.303162,193.860077 
	C286.701813,187.325409 291.988403,180.259796 300.863220,177.093826 
	C286.752747,188.884155 277.411407,204.201157 270.337463,221.787933 
	C267.743317,224.411880 265.466919,226.528778 263.708130,229.012238 
	C258.665131,236.133011 255.376236,236.273453 249.924301,229.612503 
	C248.437759,227.796326 246.302963,226.510712 244.291656,224.698334 
	C238.910843,214.283813 233.704041,204.152573 228.497238,194.021347 
z"/>
<path fill="#1B9670" opacity="1.000000" stroke="none" 
	d="
M348.716614,365.785461 
	C348.460297,366.527222 347.920441,367.054443 347.189697,367.790833 
	C335.685852,366.261993 325.704834,361.264069 316.067413,355.404175 
	C314.669647,354.554260 313.156860,353.893463 311.349243,353.071960 
	C306.926453,348.923065 302.646729,345.028687 298.834290,340.720825 
	C294.993774,336.381256 291.516968,331.704071 288.099884,327.015198 
	C287.090149,325.629639 286.823212,323.702759 286.251465,321.607605 
	C295.066406,333.335205 306.747772,342.033844 319.849030,349.554596 
	C322.345886,352.032166 324.281586,354.962402 327.001770,356.315125 
	C333.959229,359.775024 341.266022,362.532501 348.716614,365.785461 
z"/>
<path fill="#25AF78" opacity="1.000000" stroke="none" 
	d="
M244.465668,224.981598 
	C246.302963,226.510712 248.437759,227.796326 249.924301,229.612503 
	C255.376236,236.273453 258.665131,236.133011 263.708130,229.012238 
	C265.466919,226.528778 267.743317,224.411880 270.156860,222.063614 
	C268.873718,229.124542 267.217010,236.249435 265.361542,243.706360 
	C263.550598,245.414108 261.794434,246.655319 260.356659,248.194031 
	C257.482849,251.269653 254.978409,251.904663 252.456406,247.806442 
	C251.804901,246.747787 250.580933,246.041428 249.108643,244.742035 
	C247.220123,237.867752 245.842896,231.424683 244.465668,224.981598 
z"/>
<path fill="#1EA47C" opacity="1.000000" stroke="none" 
	d="
M394.333893,298.755249 
	C395.914978,295.789368 397.655670,292.625610 399.770020,289.735138 
	C407.200317,279.577362 409.518463,268.397705 406.700928,256.181610 
	C406.387207,254.821350 405.245087,253.652145 404.278290,251.827271 
	C404.761383,248.831787 405.453308,246.403366 406.469543,244.074615 
	C408.854126,248.352783 411.595398,252.345428 412.799805,256.757568 
	C414.257843,262.098816 414.415955,267.794891 415.136597,273.337402 
	C412.028809,283.035248 406.466095,290.840302 397.649506,296.183167 
	C396.552551,296.847931 395.654877,297.841461 394.333893,298.755249 
z"/>
<path fill="#1FA875" opacity="1.000000" stroke="none" 
	d="
M334.923706,250.989838 
	C330.050903,253.285751 330.629669,258.154907 330.151154,262.156555 
	C329.059235,271.287384 331.101257,279.906036 335.824585,287.877167 
	C336.623444,289.225403 336.855225,290.909668 337.205078,292.704773 
	C328.991882,286.396057 324.812042,277.525452 322.496094,267.191528 
	C323.883606,262.412384 324.531677,258.022217 326.133514,254.013092 
	C327.556976,250.450287 330.038116,247.310059 332.278381,244.001724 
	C332.504364,244.020126 332.956268,244.067108 332.984497,244.431183 
	C333.649750,246.860138 334.286743,248.924988 334.923706,250.989838 
z"/>
<path fill="#1E9E73" opacity="1.000000" stroke="none" 
	d="
M415.398254,273.031677 
	C414.415955,267.794891 414.257843,262.098816 412.799805,256.757568 
	C411.595398,252.345428 408.854126,248.352783 406.434509,243.846405 
	C406.075226,243.518539 406.059937,243.057068 406.349365,242.814056 
	C407.039490,239.385742 407.440186,236.200455 407.840881,233.015167 
	C407.892426,231.475342 407.944000,229.935516 408.015289,227.930206 
	C416.260071,238.180115 420.039490,250.010239 417.195892,263.550537 
	C416.559082,266.582794 416.165466,269.666138 415.398254,273.031677 
z"/>
<path fill="#1E9E73" opacity="1.000000" stroke="none" 
	d="
M332.052399,243.983307 
	C330.038116,247.310059 327.556976,250.450287 326.133514,254.013092 
	C324.531677,258.022217 323.883606,262.412384 322.512634,266.816803 
	C318.803345,252.220581 322.415649,239.043488 331.608337,226.895630 
	C331.719177,228.242493 331.529663,229.763977 331.261108,232.106476 
	C331.472198,236.612747 331.762299,240.298035 332.052399,243.983307 
z"/>
<path fill="#22B175" opacity="1.000000" stroke="none" 
	d="
M106.996628,365.998779 
	C107.747536,365.999939 108.498451,366.001129 109.624840,366.002991 
	C112.349396,367.394287 114.537865,369.396118 117.077026,370.063324 
	C125.395706,372.249115 133.841919,373.949646 142.618942,375.915314 
	C142.999527,376.439484 143.000259,376.885040 143.001724,377.664703 
	C129.593292,375.352661 116.184128,372.706543 102.388092,370.032074 
	C101.555977,370.001678 101.110741,369.999695 100.234161,369.713196 
	C99.202675,368.953674 98.602524,368.478668 98.002380,368.003662 
	C92.215172,364.764282 86.427948,361.524902 80.235855,357.813538 
	C79.363457,356.675781 79.009018,355.879211 78.411987,355.363434 
	C60.581039,339.959564 48.744938,320.865662 43.326553,298.137085 
	C44.325649,299.368317 45.082050,300.425293 45.674877,301.567169 
	C50.615551,311.083740 54.658260,321.204102 60.631546,330.017487 
	C72.060287,346.880219 87.838737,358.773987 106.996628,365.998779 
z"/>
<path fill="#FEFFFE" opacity="1.000000" stroke="none" 
	d="
M244.291656,224.698334 
	C245.842896,231.424683 247.220123,237.867752 248.770905,244.661118 
	C250.415375,266.485870 247.354248,287.080200 236.743042,306.844116 
	C235.229813,309.390442 234.069702,311.391449 232.807037,313.325531 
	C207.725677,351.743439 163.690796,369.495758 119.426849,358.927094 
	C103.243835,355.063141 88.891876,347.440155 75.842735,336.702148 
	C61.110180,324.070129 51.768261,308.096222 44.088802,290.554016 
	C43.447105,287.577301 42.824100,285.000641 42.213772,282.033478 
	C38.312164,264.386108 38.554878,247.172989 42.769569,230.001648 
	C45.116619,218.548950 50.599144,208.521683 57.003090,198.547791 
	C67.031090,184.623169 78.858902,173.109528 93.794815,165.032593 
	C118.149704,151.862106 143.803024,148.932831 171.018738,155.302734 
	C189.741653,160.871063 206.041245,169.879044 219.818939,183.830383 
	C222.751953,187.197098 225.377243,190.419556 228.249878,193.831696 
	C233.704041,204.152573 238.910843,214.283813 244.291656,224.698334 
M96.837479,266.832947 
	C99.288986,278.606842 104.955544,288.353394 115.247444,295.955383 
	C131.753067,307.290588 148.965836,309.105682 167.671356,299.667908 
	C179.170822,292.279816 188.353485,283.113647 191.645050,268.380005 
	C191.983902,265.155060 192.459274,261.937653 192.636902,258.703827 
	C193.252350,247.499283 190.868576,237.218399 183.069672,228.356430 
	C183.069672,228.356430 182.903030,228.051102 182.918579,227.458572 
	C182.636826,227.197998 182.355057,226.937439 181.827469,226.077805 
	C161.113297,201.275162 123.681465,203.617661 105.365799,227.916214 
	C97.158020,239.426147 93.835991,252.021576 96.837479,266.832947 
z"/>
<path fill="#28BD76" opacity="1.000000" stroke="none" 
	d="
M42.446056,230.110077 
	C38.554878,247.172989 38.312164,264.386108 42.057686,282.441071 
	C41.927166,286.158173 41.965412,289.077179 42.004044,292.330414 
	C42.006119,293.110382 42.007812,293.556061 42.071918,294.278503 
	C42.423325,295.035370 42.712318,295.515533 43.001427,296.330078 
	C43.003708,297.110382 43.005878,297.556305 43.008049,298.002197 
	C48.744938,320.865662 60.581039,339.959564 78.411987,355.363434 
	C79.009018,355.879211 79.363457,356.675781 79.914841,357.670135 
	C74.221001,354.052155 68.443291,350.105499 62.330997,346.078522 
	C50.236675,334.291565 42.819351,319.887329 38.573727,304.222656 
	C35.473747,292.784943 33.222519,280.668854 33.437458,268.907135 
	C33.652439,257.143402 37.346851,245.433243 39.681389,233.732574 
	C39.937309,232.449921 41.282547,231.384613 42.446056,230.110077 
z"/>
<path fill="#20B37C" opacity="1.000000" stroke="none" 
	d="
M98.099731,368.287048 
	C98.602524,368.478668 99.202675,368.953674 99.900246,369.711884 
	C99.397476,369.520233 98.797287,369.045349 98.099731,368.287048 
z"/>
<path fill="#229F6E" opacity="1.000000" stroke="none" 
	d="
M75.995209,337.000183 
	C88.891876,347.440155 103.243835,355.063141 119.426849,358.927094 
	C163.690796,369.495758 207.725677,351.743439 232.807037,313.325531 
	C234.069702,311.391449 235.229813,309.390442 236.698975,307.203613 
	C236.760376,308.719269 237.014969,310.673767 236.293518,312.151825 
	C221.201279,343.071960 196.375153,361.789673 162.801208,367.667847 
	C136.984207,372.187958 112.495804,366.898438 90.471886,352.025024 
	C89.928810,351.658264 89.279053,351.449463 88.041847,350.932922 
	C83.985458,347.679047 80.419014,344.803436 77.236351,341.552124 
	C76.275429,340.570465 76.379158,338.546631 75.995209,337.000183 
z"/>
<path fill="#26AD70" opacity="1.000000" stroke="none" 
	d="
M75.842743,336.702148 
	C76.379158,338.546631 76.275429,340.570465 77.236351,341.552124 
	C80.419014,344.803436 83.985458,347.679047 87.702553,350.852844 
	C92.834122,354.747986 97.661804,358.496887 102.505211,362.225372 
	C103.902756,363.301239 105.345604,364.318298 106.882156,365.680542 
	C87.838737,358.773987 72.060287,346.880219 60.631546,330.017487 
	C54.658260,321.204102 50.615551,311.083740 45.674877,301.567169 
	C45.082050,300.425293 44.325649,299.368317 43.326553,298.137085 
	C43.005878,297.556305 43.003708,297.110382 43.128498,296.129517 
	C42.840137,295.063629 42.424820,294.532715 42.009502,294.001770 
	C42.007812,293.556061 42.006119,293.110382 42.267433,292.201233 
	C43.056118,291.476532 43.581799,291.215302 44.107487,290.954041 
	C51.768261,308.096222 61.110180,324.070129 75.842743,336.702148 
z"/>
<path fill="#2DD4B6" opacity="1.000000" stroke="none" 
	d="
M402.003357,254.002563 
	C401.757629,254.504074 401.511902,255.005585 400.879089,255.964935 
	C398.589752,258.895233 396.687500,261.367706 394.464844,263.953735 
	C380.392853,273.182343 366.012268,275.576385 351.040924,267.402679 
	C347.038483,265.217529 343.704010,261.808868 339.906616,258.688965 
	C338.853119,257.271820 337.955841,256.127594 337.058563,254.983368 
	C336.747650,254.194473 336.436737,253.405579 336.310455,252.062012 
	C337.641052,249.870163 338.811279,248.249313 339.929169,246.593140 
	C347.855133,234.850494 361.721191,229.152130 375.571686,231.842102 
	C388.503235,234.353607 396.542908,242.620529 402.003357,254.002563 
z"/>
<path fill="#1EB183" opacity="1.000000" stroke="none" 
	d="
M394.785217,263.840210 
	C396.687500,261.367706 398.589752,258.895233 400.743896,256.209625 
	C408.445648,273.756134 396.055725,295.238312 375.735687,299.793640 
	C351.511841,305.224091 329.857330,284.291779 334.234528,259.591034 
	C334.503204,258.074707 335.643280,256.712799 336.718262,255.131195 
	C337.955841,256.127594 338.853119,257.271820 339.676117,258.984680 
	C339.372833,262.753082 338.590851,266.027405 339.010498,269.139679 
	C340.828705,282.624268 351.130707,292.519806 364.329987,293.914185 
	C376.733093,295.224426 389.873840,287.303833 394.130310,275.233917 
	C395.345612,271.787628 394.620544,267.657013 394.785217,263.840210 
z"/>
<path fill="#2ACDAC" opacity="1.000000" stroke="none" 
	d="
M402.210876,253.818970 
	C396.542908,242.620529 388.503235,234.353607 375.571686,231.842102 
	C361.721191,229.152130 347.855133,234.850494 339.929169,246.593140 
	C338.811279,248.249313 337.641052,249.870163 336.266663,251.745697 
	C335.761810,251.797501 335.506500,251.585526 335.098022,251.168976 
	C334.286743,248.924988 333.649750,246.860138 333.067932,244.080475 
	C338.476837,231.129379 360.011292,220.882126 374.540833,223.351562 
	C387.823486,225.609070 398.254974,232.167603 406.059937,243.057068 
	C406.059937,243.057068 406.075226,243.518539 406.110229,243.746735 
	C405.453308,246.403366 404.761383,248.831787 403.974487,251.623947 
	C403.392487,252.536911 402.905457,253.086121 402.210876,253.818970 
z"/>
<path fill="#27C69F" opacity="1.000000" stroke="none" 
	d="
M406.349365,242.814056 
	C398.254974,232.167603 387.823486,225.609070 374.540833,223.351562 
	C360.011292,220.882126 338.476837,231.129379 333.039673,243.716400 
	C332.956268,244.067108 332.504364,244.020126 332.278381,244.001709 
	C331.762299,240.298035 331.472198,236.612747 331.241516,232.488098 
	C333.312103,230.959000 335.480865,230.084808 337.310425,228.746796 
	C360.014557,212.142883 382.709564,212.835510 404.365356,230.856262 
	C405.248718,231.591385 406.256989,232.176422 407.523987,232.923279 
	C407.440186,236.200455 407.039490,239.385742 406.349365,242.814056 
z"/>
<path fill="#27C07E" opacity="1.000000" stroke="none" 
	d="
M167.004639,299.799866 
	C148.965836,309.105682 131.753067,307.290588 115.015526,295.319214 
	C113.755981,292.806885 112.791290,290.892914 111.690628,289.060608 
	C104.124382,276.464996 101.903999,263.520691 109.253769,250.167099 
	C110.310829,251.600052 111.152344,252.800705 112.045502,254.307739 
	C112.436653,255.364273 112.776154,256.114441 112.945465,257.227325 
	C112.203438,260.512299 110.950966,263.486389 111.168961,266.348480 
	C112.721680,286.734283 129.387268,299.380554 147.703018,295.891174 
	C164.444397,292.701752 176.130432,277.626251 173.149826,259.702545 
	C174.225418,257.953827 175.139511,256.484955 176.267059,254.811234 
	C177.248642,253.729980 178.016739,252.853622 179.095444,252.179047 
	C180.065536,253.504776 181.034897,254.551498 181.337143,255.764465 
	C184.762421,269.511719 181.726608,281.661194 172.290497,292.284149 
	C170.269516,294.559296 168.753357,297.282867 167.004639,299.799866 
z"/>
<path fill="#31C992" opacity="1.000000" stroke="none" 
	d="
M182.903030,228.051102 
	C182.903030,228.051102 183.069672,228.356430 183.016647,228.977600 
	C182.880569,231.085739 182.797501,232.572693 182.385406,234.013397 
	C180.322632,232.765274 178.410217,231.755249 176.882507,230.332199 
	C159.479599,214.121414 130.303101,213.853622 112.708679,229.704865 
	C110.781548,231.441055 108.334457,232.600113 106.102051,233.563782 
	C106.035767,231.229065 105.995956,229.357422 105.956154,227.485794 
	C123.681465,203.617661 161.113297,201.275162 182.083374,226.609390 
	C182.527206,227.444351 182.715118,227.747726 182.903030,228.051102 
z"/>
<path fill="#24B477" opacity="1.000000" stroke="none" 
	d="
M167.337997,299.733887 
	C168.753357,297.282867 170.269516,294.559296 172.290497,292.284149 
	C181.726608,281.661194 184.762421,269.511719 181.337143,255.764465 
	C181.034897,254.551498 180.065536,253.504776 179.176971,251.808395 
	C179.633636,248.824402 180.319336,246.412842 181.227905,243.992432 
	C181.450775,243.983597 181.896591,243.967407 182.227722,244.085663 
	C187.487503,249.520981 188.119354,256.286041 189.063538,263.003052 
	C189.355270,265.078583 190.441864,267.042358 191.164505,269.057312 
	C188.353485,283.113647 179.170822,292.279816 167.337997,299.733887 
z"/>
<path fill="#28B875" opacity="1.000000" stroke="none" 
	d="
M109.038223,249.934814 
	C101.903999,263.520691 104.124382,276.464996 111.690628,289.060608 
	C112.791290,290.892914 113.755981,292.806885 114.824844,295.053467 
	C104.955544,288.353394 99.288986,278.606842 97.209518,266.266418 
	C98.056961,264.364990 98.529610,263.029144 99.008224,261.695404 
	C101.383545,255.076248 103.760429,248.457657 106.321121,242.050476 
	C106.954124,242.852417 107.402779,243.442749 107.894104,244.409851 
	C108.303932,246.502701 108.671082,248.218750 109.038223,249.934814 
z"/>
<path fill="#26AD70" opacity="1.000000" stroke="none" 
	d="
M191.404785,268.718658 
	C190.441864,267.042358 189.355270,265.078583 189.063538,263.003052 
	C188.119354,256.286041 187.487503,249.520981 182.250549,243.668793 
	C182.199631,240.108978 182.457031,237.084320 182.714432,234.059647 
	C182.797501,232.572693 182.880569,231.085739 182.997986,229.150528 
	C190.868576,237.218399 193.252350,247.499283 192.636902,258.703827 
	C192.459274,261.937653 191.983902,265.155060 191.404785,268.718658 
z"/>
<path fill="#26AD70" opacity="1.000000" stroke="none" 
	d="
M106.136780,241.838882 
	C103.760429,248.457657 101.383545,255.076248 99.008224,261.695404 
	C98.529610,263.029144 98.056961,264.364990 97.239151,265.867493 
	C93.835991,252.021576 97.158020,239.426147 105.660980,227.701004 
	C105.995956,229.357422 106.035767,231.229065 106.075287,234.000824 
	C106.095589,237.213593 106.116180,239.526230 106.136780,241.838882 
z"/>
<path fill="#22B175" opacity="1.000000" stroke="none" 
	d="
M44.088799,290.553986 
	C43.581799,291.215302 43.056118,291.476532 42.267048,291.866943 
	C41.965412,289.077179 41.927166,286.158173 42.045006,282.831604 
	C42.824100,285.000641 43.447105,287.577301 44.088799,290.553986 
z"/>
<path fill="#26AD70" opacity="1.000000" stroke="none" 
	d="
M182.910797,227.754837 
	C182.715118,227.747726 182.527206,227.444351 182.206284,226.908936 
	C182.355057,226.937439 182.636826,227.197998 182.910797,227.754837 
z"/>
<path fill="#22B175" opacity="1.000000" stroke="none" 
	d="
M42.071918,294.278503 
	C42.424820,294.532715 42.840137,295.063629 43.128387,295.795135 
	C42.712318,295.515533 42.423325,295.035370 42.071918,294.278503 
z"/>
<path fill="#1FB787" opacity="1.000000" stroke="none" 
	d="
M394.464874,263.953735 
	C394.620544,267.657013 395.345612,271.787628 394.130310,275.233917 
	C389.873840,287.303833 376.733093,295.224426 364.329987,293.914185 
	C351.130707,292.519806 340.828705,282.624268 339.010498,269.139679 
	C338.590851,266.027405 339.372833,262.753082 339.832397,259.257629 
	C343.704010,261.808868 347.038483,265.217529 351.040924,267.402679 
	C366.012268,275.576385 380.392853,273.182343 394.464874,263.953735 
z"/>
<path fill="#38E0B4" opacity="1.000000" stroke="none" 
	d="
M113.115662,256.864594 
	C112.776154,256.114441 112.436653,255.364273 112.321793,254.113785 
	C113.471382,252.252731 114.491020,250.946304 115.307022,249.523102 
	C127.219925,228.745560 159.836395,228.344238 171.452393,248.629791 
	C172.749100,250.894302 174.508682,252.893738 176.053589,255.016113 
	C175.139511,256.484955 174.225418,257.953827 172.867249,259.879395 
	C158.558334,274.752136 137.126236,275.457794 123.517906,266.134583 
	C119.717384,263.530792 116.565239,259.980621 113.115662,256.864594 
z"/>
<path fill="#28C983" opacity="1.000000" stroke="none" 
	d="
M112.945465,257.227325 
	C116.565239,259.980621 119.717384,263.530792 123.517906,266.134583 
	C137.126236,275.457794 158.558334,274.752136 172.705750,260.159302 
	C176.130432,277.626251 164.444397,292.701752 147.703018,295.891174 
	C129.387268,299.380554 112.721680,286.734283 111.168961,266.348480 
	C110.950966,263.486389 112.203438,260.512299 112.945465,257.227325 
z"/>
<path fill="#36D9AA" opacity="1.000000" stroke="none" 
	d="
M176.267059,254.811234 
	C174.508682,252.893738 172.749100,250.894302 171.452393,248.629791 
	C159.836395,228.344238 127.219925,228.745560 115.307022,249.523102 
	C114.491020,250.946304 113.471382,252.252731 112.270149,253.807404 
	C111.152344,252.800705 110.310829,251.600052 109.253769,250.167099 
	C108.671082,248.218750 108.303932,246.502701 108.197983,244.236267 
	C111.660416,240.592865 114.700554,237.309570 118.090569,234.439545 
	C133.345032,221.524887 155.347931,221.814987 170.597961,234.999954 
	C174.067566,237.999725 177.536041,241.000809 181.005035,244.001282 
	C180.319336,246.412842 179.633636,248.824402 178.866394,251.606598 
	C178.016739,252.853622 177.248642,253.729980 176.267059,254.811234 
z"/>
<path fill="#32D19E" opacity="1.000000" stroke="none" 
	d="
M181.227905,243.992432 
	C177.536041,241.000809 174.067566,237.999725 170.597961,234.999954 
	C155.347931,221.814987 133.345032,221.524887 118.090569,234.439545 
	C114.700554,237.309570 111.660416,240.592865 108.155304,243.859482 
	C107.402779,243.442749 106.954124,242.852417 106.321129,242.050476 
	C106.116180,239.526230 106.095589,237.213593 106.101761,234.463898 
	C108.334457,232.600113 110.781548,231.441055 112.708679,229.704865 
	C130.303101,213.853622 159.479599,214.121414 176.882507,230.332199 
	C178.410217,231.755249 180.322632,232.765274 182.385406,234.013397 
	C182.457031,237.084320 182.199631,240.108978 181.919403,243.550537 
	C181.896591,243.967407 181.450775,243.983597 181.227905,243.992432 
z"/>
</svg>